{"title":"18+ Zulu 2013 UNRATED English Movies BRRip XViD New +Sample â˜»rDX","uid":9949693,"size":737210158,"categoryP":"video","categoryS":"movies","magnet":"?xt=urn:btih:55c9b109638b775fd7ab53fda41046d44ef8435e&amp;dn=18%2B+Zulu+2013+UNRATED+English+Movies+BRRip+XViD+New+%2BSample+%E2%98%BBrDX&amp;tr=udp%3A%2F%2Ftracker.openbittorrent.com%3A80&amp;tr=udp%3A%2F%2Fopen.demonii.com%3A1337&amp;tr=udp%3A%2F%2Ftracker.coppersurfer.tk%3A6969&amp;tr=udp%3A%2F%2Fexodus.desync.com%3A6969","seeders":1,"leechers":1,"uploader":"basicssom","files":2,"time":1397378005,"description":"---------------------------------------------------------------- &lt;a href=&quot;\nhttp://s5.postimg.org/hgeuxszk7/logo.png&quot; rel=&quot;nofollow&quot; target=&quot;_NEW&quot;&gt;\nhttp://s5.postimg.org/hgeuxszk7/logo.png&lt;/a&gt;\n\n18+ Zulu 2013 UNRATED English Movies BRRip XViD New Source with Sample ~ â˜»rDXâ˜»\n\nPlease check SCREEN SHOTS first :\n &lt;a href=&quot;\nhttp://moviesreview.co.nr/2014/4/Zulu/1.html&quot; rel=&quot;nofollow&quot; target=&quot;_NEW&quot;&gt;\nhttp://moviesreview.co.nr/2014/4/Zulu/1.html&lt;/a&gt; &lt;a href=&quot;\nhttp://moviesreview.co.nr/2014/4/Zulu/2.html&quot; rel=&quot;nofollow&quot; target=&quot;_NEW&quot;&gt;\nhttp://moviesreview.co.nr/2014/4/Zulu/2.html&lt;/a&gt; &lt;a href=&quot;\nhttp://moviesreview.co.nr/2014/4/Zulu/3.html&quot; rel=&quot;nofollow&quot; target=&quot;_NEW&quot;&gt;\nhttp://moviesreview.co.nr/2014/4/Zulu/3.html&lt;/a&gt; &lt;a href=&quot;\nhttp://moviesreview.co.nr/2014/4/Zulu/4.html&quot; rel=&quot;nofollow&quot; target=&quot;_NEW&quot;&gt;\nhttp://moviesreview.co.nr/2014/4/Zulu/4.html&lt;/a&gt; &lt;a href=&quot;\nhttp://moviesreview.co.nr/2014/4/Zulu/5.html&quot; rel=&quot;nofollow&quot; target=&quot;_NEW&quot;&gt;\nhttp://moviesreview.co.nr/2014/4/Zulu/5.html&lt;/a&gt; &lt;a href=&quot;\nhttp://moviesreview.co.nr/2014/4/Zulu/6.html&quot; rel=&quot;nofollow&quot; target=&quot;_NEW&quot;&gt;\nhttp://moviesreview.co.nr/2014/4/Zulu/6.html&lt;/a&gt; &lt;a href=&quot;\nhttp://moviesreview.co.nr/2014/4/Zulu/7.html&quot; rel=&quot;nofollow&quot; target=&quot;_NEW&quot;&gt;\nhttp://moviesreview.co.nr/2014/4/Zulu/7.html&lt;/a&gt; &lt;a href=&quot;\nhttp://moviesreview.co.nr/2014/4/Zulu/8.html&quot; rel=&quot;nofollow&quot; target=&quot;_NEW&quot;&gt;\nhttp://moviesreview.co.nr/2014/4/Zulu/8.html&lt;/a&gt; &lt;a href=&quot;\nhttp://moviesreview.co.nr/2014/4/Zulu/9.html&quot; rel=&quot;nofollow&quot; target=&quot;_NEW&quot;&gt;\nhttp://moviesreview.co.nr/2014/4/Zulu/9.html&lt;/a&gt; &lt;a href=&quot;\nhttp://moviesreview.co.nr/2014/4/Zulu/10.html&quot; rel=&quot;nofollow&quot; target=&quot;_NEW&quot;&gt;\nhttp://moviesreview.co.nr/2014/4/Zulu/10.html&lt;/a&gt;\n\nAll rDX torrents are Seeding From the 1Gbps Seedbox 24X7\n\nPOSTER:\n &lt;a href=&quot;\nhttp://istoreimg.com/upload/big/2014/04/13/534a2cb614d97.jpg&quot; rel=&quot;nofollow&quot; target=&quot;_NEW&quot;&gt;\nhttp://istoreimg.com/upload/big/2014/04/13/534a2cb614d97.jpg&lt;/a&gt;\n\nFormat                                   : Matroska\nFormat version                           : Version 4 / Version 2\nFile size                                : 693 MiB\nDuration                                 : 1h 46mn\nOverall bit rate                         : 913 Kbps\nMovie name                               : 18+ Zulu 2013 UNRATED English Movies BRRip XViD New Source \n\n~ rDX ~\n\nVideo\nID                                       : 1\nFormat                                   : MPEG-4 Visual\nFormat profile                           : Advanced Simple@L5\nFormat settings, BVOP                    : Yes\nFormat settings, QPel                    : No\nFormat settings, GMC                     : No warppoints\nFormat settings, Matrix                  : Default (H.263)\nCodec ID                                 : V_MS/VFW/FOURCC / XVID\nCodec ID/Hint                            : XviD\nDuration                                 : 1h 46mn\nBit rate                                 : 766 Kbps\nWidth                                    : 640 pixels\nHeight                                   : 272 pixels\nDisplay aspect ratio                     : 2.35:1\nFrame rate mode                          : Constant\nFrame rate                               : 24.000 fps\nColor space                              : YUV\nChroma subsampling                       : 4:2:0\nBit depth                                : 8 bits\nScan type                                : Progressive\nCompression mode                         : Lossy\nBits/(Pixel*Frame)                       : 0.183\nStream size                              : 582 MiB (84%)\nTitle                                    : ~ rDX ~\nWriting library                          : XviD 64\nDefault                                  : Yes\nForced                                   : No\n\nAudio\nID                                       : 2\nFormat                                   : MPEG Audio\nFormat version                           : Version 1\nFormat profile                           : Layer 3\nMode                                     : Joint stereo\nMode extension                           : MS Stereo\nCodec ID                                 : A_MPEG/L3\nCodec ID/Hint                            : MP3\nDuration                                 : 1h 46mn\nBit rate mode                            : Constant\nBit rate                                 : 128 Kbps\nChannel(s)                               : 2 channels\nSampling rate                            : 48.0 KHz\nCompression mode                         : Lossy\nStream size                              : 97.7 MiB (14%)\nTitle                                    : ~ rDX ~\nWriting library                          : LAME3.99r\nEncoding settings                        : -m j -V 4 -q 3 -lowpass 17 -b 128\nDefault                                  : Yes\nForced                                   : No","torrent":{"xt":"urn:btih:55c9b109638b775fd7ab53fda41046d44ef8435e","amp;dn":"18%2B+Zulu+2013+UNRATED+English+Movies+BRRip+XViD+New+%2BSample+%E2%98%BBrDX","amp;tr":["udp%3A%2F%2Ftracker.openbittorrent.com%3A80","udp%3A%2F%2Fopen.demonii.com%3A1337","udp%3A%2F%2Ftracker.coppersurfer.tk%3A6969","udp%3A%2F%2Fexodus.desync.com%3A6969"],"infoHash":"55c9b109638b775fd7ab53fda41046d44ef8435e","infoHashBuffer":{"type":"Buffer","data":[85,201,177,9,99,139,119,95,215,171,83,253,164,16,70,212,78,248,67,94]},"announce":[],"urlList":[]}}